<svg width="28" height="36" viewBox="0 0 28 36" fill="none" xmlns="http://www.w3.org/2000/svg">
<path d="M24.0001 12.3333H22.3334V9C22.3334 4.4 18.6001 0.666666 14.0001 0.666666C9.40008 0.666666 5.66675 4.4 5.66675 9H9.00008C9.00008 6.23333 11.2334 4 14.0001 4C16.7667 4 19.0001 6.23333 19.0001 9V12.3333H4.00008C2.16675 12.3333 0.666748 13.8333 0.666748 15.6667V32.3333C0.666748 34.1667 2.16675 35.6667 4.00008 35.6667H24.0001C25.8334 35.6667 27.3334 34.1667 27.3334 32.3333V15.6667C27.3334 13.8333 25.8334 12.3333 24.0001 12.3333ZM24.0001 32.3333H4.00008V15.6667H24.0001V32.3333ZM14.0001 27.3333C15.8334 27.3333 17.3334 25.8333 17.3334 24C17.3334 22.1667 15.8334 20.6667 14.0001 20.6667C12.1667 20.6667 10.6667 22.1667 10.6667 24C10.6667 25.8333 12.1667 27.3333 14.0001 27.3333Z" fill="#9CA0AF"/>
</svg>
